<svg width="14" height="10" viewBox="0 0 14 10" fill="none" xmlns="http://www.w3.org/2000/svg">
<path fill-rule="evenodd" clip-rule="evenodd" d="M12.3975 5.00008C12.3975 3.52507 11.7935 2.18931 10.8168 1.22246L11.7148 0.333496C12.9215 1.52803 13.6675 3.17793 13.6675 5.00008C13.6675 6.82224 12.9215 8.47214 11.7148 9.66667L10.8168 8.7777C11.7935 7.81086 12.3975 6.4751 12.3975 5.00008ZM1.60398 5.00025C1.60398 6.47526 2.20798 7.81102 3.18465 8.77786L2.28665 9.66683C1.07998 8.4723 0.333984 6.8224 0.333984 5.00025C0.333984 3.17809 1.07998 1.52819 2.28665 0.333659L3.18465 1.22263C2.20798 2.18947 1.60398 3.52523 1.60398 5.00025ZM4.98053 7C4.46386 6.48853 4.14386 5.78105 4.14386 5.00032C4.14386 4.21892 4.46386 3.51211 4.98053 2.99998L4.08253 2.11101C3.33586 2.85083 2.87386 3.87179 2.87386 5.00032C2.87386 6.12819 3.33586 7.14981 4.08253 7.88897L4.98053 7ZM8.58798 5.00012C8.58798 4.13294 7.87731 3.42876 7.00064 3.42876C6.12464 3.42876 5.41331 4.13294 5.41331 5.00012C5.41331 5.86731 6.12464 6.57149 7.00064 6.57149C7.87731 6.57149 8.58798 5.86731 8.58798 5.00012ZM9.02092 3.0003C9.53758 3.51177 9.85758 4.21925 9.85758 4.99998C9.85758 5.78138 9.53758 6.48819 9.02092 7.00032L9.91891 7.88929C10.6656 7.14948 11.1276 6.12852 11.1276 4.99998C11.1276 3.87211 10.6656 2.85049 9.91891 2.11133L9.02092 3.0003Z" fill="white"/>
</svg>
